<svg width="36" height="36" viewBox="0 0 36 36" fill="none" xmlns="http://www.w3.org/2000/svg">
<ellipse cx="18" cy="17.7429" rx="18" ry="17.7429" fill="url(#paint0_linear)" fill-opacity="0.48"/>
<g clip-path="url(#clip0)">
<path d="M17.7428 16.9714C20.7457 16.9714 23.1795 14.554 23.1795 11.5714C23.1795 8.58873 20.7457 6.17139 17.7428 6.17139C14.7398 6.17139 12.306 8.58873 12.306 11.5714C12.306 14.554 14.7398 16.9714 17.7428 16.9714ZM21.5485 18.3214H20.8392C19.8962 18.7517 18.8471 18.9964 17.7428 18.9964C16.6384 18.9964 15.5936 18.7517 14.6464 18.3214H13.9371C10.7854 18.3214 8.22849 20.8611 8.22849 23.9914V25.7464C8.22849 26.8644 9.14169 27.7714 10.2673 27.7714H25.2183C26.3439 27.7714 27.2571 26.8644 27.2571 25.7464V23.9914C27.2571 20.8611 24.7001 18.3214 21.5485 18.3214Z" fill="white"/>
</g>
<defs>
<linearGradient id="paint0_linear" x1="36" y1="17.7429" x2="0" y2="17.7429" gradientUnits="userSpaceOnUse">
<stop stop-color="#09DC44"/>
<stop offset="1" stop-color="#14B2F7"/>
</linearGradient>
<clipPath id="clip0">
<rect x="8.22849" y="6.17139" width="19.0286" height="21.6" fill="white"/>
</clipPath>
</defs>
</svg>
